HIERARCHY
ROOT Hips
{
	OFFSET 0.000000 0.000000 0.000000
	CHANNELS 6 Xposition Yposition Zposition Xrotation Yrotation Zrotation
	JOINT LeftUpLeg_virtual
	{
		OFFSET 0.000000 0.000000 0.000000
		CHANNELS 3 Xrotation Yrotation Zrotation
		JOINT LeftUpLeg
		{
			OFFSET 10.205400 -3.823500 0.155100
			CHANNELS 3 Xrotation Yrotation Zrotation
			JOINT LeftLeg
			{
				OFFSET 0.708757 -12.982077 0.567790
				CHANNELS 3 Xrotation Yrotation Zrotation
				JOINT LeftFoot
				{
					OFFSET -0.708756 -10.717838 -2.184338
					CHANNELS 3 Xrotation Yrotation Zrotation
					JOINT LeftToeBase
					{
						OFFSET 0.108149 -7.191104 7.560241
						CHANNELS 3 Xrotation Yrotation Zrotation
						JOINT LeftToe_End
						{
							OFFSET 0.070230 0.081724 4.490308
							CHANNELS 3 Xrotation Yrotation Zrotation
							End Site
							{
								OFFSET 0 0 0
							}
						}
					}
				}
			}
		}
	}
	JOINT RightUpLeg_virtual
	{
		OFFSET 0.000000 0.000000 0.000000
		CHANNELS 3 Xrotation Yrotation Zrotation
		JOINT RightUpLeg
		{
			OFFSET -10.205400 -3.823500 0.005500
			CHANNELS 3 Xrotation Yrotation Zrotation
			JOINT RightLeg
			{
				OFFSET -0.708756 -12.982134 0.610632
				CHANNELS 3 Xrotation Yrotation Zrotation
				JOINT RightFoot
				{
					OFFSET 0.708754 -10.717769 -1.945823
					CHANNELS 3 Xrotation Yrotation Zrotation
					JOINT RightToeBase
					{
						OFFSET -0.108140 -7.191069 7.372968
						CHANNELS 3 Xrotation Yrotation Zrotation
						JOINT RightToe_End
						{
							OFFSET -0.070227 0.081735 4.479403
							CHANNELS 3 Xrotation Yrotation Zrotation
							End Site
							{
								OFFSET 0 0 0
							}
						}
					}
				}
			}
		}
	}
	JOINT Spine_virtual
	{
		OFFSET 0.000000 0.000000 0.000000
		CHANNELS 3 Xrotation Yrotation Zrotation
		JOINT Spine
		{
			OFFSET 0.000000 6.876099 0.125700
			CHANNELS 3 Xrotation Yrotation Zrotation
			JOINT Spine1
			{
				OFFSET 0.000000 5.730043 0.104720
				CHANNELS 3 Xrotation Yrotation Zrotation
				JOINT Spine1_split
				{
					OFFSET 0.000000 5.730043 0.104720
					CHANNELS 3 Xrotation Yrotation Zrotation
					JOINT Spine2
					{
						OFFSET 0.000000 5.730043 0.104720
						CHANNELS 3 Xrotation Yrotation Zrotation
						JOINT Neck_virtual
						{
							OFFSET 0.000000 0.000000 0.000000
							CHANNELS 3 Xrotation Yrotation Zrotation
							JOINT Neck
							{
								OFFSET 0.000000 10.314075 0.188496
								CHANNELS 3 Xrotation Yrotation Zrotation
								JOINT Head
								{
									OFFSET 0.000000 7.643700 -2.377400
									CHANNELS 3 Xrotation Yrotation Zrotation
									JOINT HeadTop_End
									{
										OFFSET 0.000000 43.788605 -13.619600
										CHANNELS 3 Xrotation Yrotation Zrotation
										End Site
										{
											OFFSET 0 0 0
										}
									}
								}
							}
						}
						JOINT LeftShoulder_virtual
						{
							OFFSET 0.000000 0.000000 0.000000
							CHANNELS 3 Xrotation Yrotation Zrotation
							JOINT LeftShoulder
							{
								OFFSET 2.196100 4.412489 0.087492
								CHANNELS 3 Xrotation Yrotation Zrotation
								JOINT LeftShoulder_split
								{
									OFFSET 2.196100 4.412489 0.087492
									CHANNELS 3 Xrotation Yrotation Zrotation
									JOINT LeftArm
									{
										OFFSET 8.771219 -2.981674 -0.026999
										CHANNELS 3 Xrotation Yrotation Zrotation
										JOINT LeftForeArm
										{
											OFFSET 8.512804 0.000000 -0.000000
											CHANNELS 3 Xrotation Yrotation Zrotation
											JOINT LeftHand
											{
												OFFSET 18.484802 0.000000 -0.000000
												CHANNELS 3 Xrotation Yrotation Zrotation
												End Site
												{
													OFFSET 0 0 0
												}
											}
										}
									}
								}
							}
						}
						JOINT RightShoulder_virtual
						{
							OFFSET 0.000000 0.000000 0.000000
							CHANNELS 3 Xrotation Yrotation Zrotation
							JOINT RightShoulder
							{
								OFFSET -2.196100 4.412496 0.070690
								CHANNELS 3 Xrotation Yrotation Zrotation
								JOINT RightShoulder_split
								{
									OFFSET -2.196100 4.412496 0.070690
									CHANNELS 3 Xrotation Yrotation Zrotation
									JOINT RightArm
									{
										OFFSET -8.771282 -2.981682 -0.094208
										CHANNELS 3 Xrotation Yrotation Zrotation
										JOINT RightForeArm
										{
											OFFSET -8.494598 0.000000 0.000000
											CHANNELS 3 Xrotation Yrotation Zrotation
											JOINT RightHand
											{
												OFFSET -18.483803 0.000000 0.000001
												CHANNELS 3 Xrotation Yrotation Zrotation
												End Site
												{
													OFFSET 0 0 0
												}
											}
										}
									}
								}
							}
						}
					}
				}
			}
		}
	}
}
MOTION
Frames: 10
Frame Time: 0.03333333
5.181300 50.073589 -6.088564 0.000000 0.000000 0.000000 -87.002123 -5.376022 2.241448 9.526982 24.676398 3.830940 2.710515 -19.581003 -9.228989 20.875059 36.868845 -10.609884 5.412582 0.108550 8.898633 0.000000 0.000000 0.000000 -85.161613 -2.149898 4.685777 5.937083 -15.859617 -15.169669 -1.994445 21.008294 -11.126158 16.668882 -33.738010 26.898250 8.340935 -1.522254 -33.581950 0.000000 0.000000 0.000000 -88.642147 3.734407 8.415997 8.904412 -3.248143 -0.518977 3.186896 -5.375386 0.807812 0.045864 0.498463 -0.132370 0.000000 0.000000 0.000000 2.905734 -2.516822 -0.452760 -9.833510 6.592387 7.789420 -8.795248 -10.191308 11.446881 0.000000 0.000000 0.000000 2.162190 -3.666500 -1.637487 1.767487 9.496390 -5.705152 3.102669 -1.277857 -3.904816 36.872691 -33.934678 -28.139956 25.041364 -70.115075 18.136953 0.000000 0.000000 0.000000 5.408603 -2.751963 -0.853650 -2.115296 -3.511044 19.979096 7.941634 -0.138882 2.416972 -21.524315 52.717388 56.045329 172.018041 73.181836 -178.506352 0.000000 0.000000 0.000000 
5.148499 50.060471 -6.339083 0.000000 0.000000 0.000000 -87.566631 -5.417360 2.093009 10.593033 25.159389 4.060293 3.180856 -18.831943 -9.390618 20.377402 37.334784 -9.925331 5.215961 0.133601 8.979156 0.000000 0.000000 0.000000 -85.827249 -1.943975 4.749440 7.598069 -16.506260 -14.418601 -2.767212 20.997221 -11.169121 15.306905 -33.886426 26.262048 7.077141 -1.077309 -34.098712 0.000000 0.000000 0.000000 -89.385566 3.672743 8.448096 8.686524 -3.112976 -0.207852 3.146063 -5.465591 0.555114 0.029465 0.583757 -0.131712 0.000000 0.000000 0.000000 2.975052 -2.633461 -0.687650 -10.064796 6.736413 7.151796 -9.186890 -11.902921 11.814375 0.000000 0.000000 0.000000 2.132243 -3.717396 -1.903438 1.727545 9.062954 -5.234309 3.754920 -1.471469 -3.245351 36.044073 -34.212124 -29.536924 26.073569 -70.188185 19.312013 0.000000 0.000000 0.000000 5.415275 -2.811452 -1.071169 -2.302104 -3.189509 19.540254 8.540793 -0.013300 1.769011 -25.129039 51.631831 57.297917 174.059025 74.207943 179.306153 0.000000 0.000000 0.000000 
5.129238 50.039612 -6.521441 0.000000 0.000000 0.000000 -87.959477 -5.396171 1.909690 10.797616 25.408683 4.601544 4.053870 -18.332887 -9.394653 20.900112 37.461757 -9.900214 5.038774 0.177906 8.904645 0.000000 0.000000 0.000000 -86.335312 -1.850323 4.630952 8.553405 -16.980286 -13.792469 -3.299324 20.707337 -11.165587 14.622267 -34.148077 25.608473 6.096433 -0.792753 -34.386546 0.000000 0.000000 0.000000 -89.808757 3.591452 8.370677 8.531209 -2.911219 0.084411 3.175870 -5.429515 0.397887 0.030532 0.644743 -0.126849 0.000000 0.000000 0.000000 3.064920 -2.615763 -0.870360 -9.836327 6.651291 6.610789 -9.237885 -13.612414 11.881053 0.000000 0.000000 0.000000 2.159741 -3.687418 -2.088463 1.668946 8.407650 -4.951214 4.435025 -1.452902 -2.719525 35.435663 -34.594806 -30.394000 26.413602 -70.238025 19.992498 0.000000 0.000000 0.000000 5.472650 -2.734521 -1.201007 -2.376531 -2.919251 19.345497 8.679573 0.135934 1.601217 -26.997417 50.990842 56.926693 175.898777 75.617448 177.369098 0.000000 0.000000 0.000000 
5.112687 50.029469 -6.622694 0.000000 0.000000 0.000000 -88.127759 -5.324497 1.775993 10.237187 25.391150 5.302225 5.044389 -18.078344 -9.292351 22.230604 37.299277 -10.389996 5.233599 0.263309 8.633476 0.000000 0.000000 0.000000 -86.626210 -1.877002 4.425647 8.760898 -17.196605 -13.438052 -3.553268 20.302278 -11.123177 14.920545 -34.347085 25.325715 5.336643 -0.635410 -34.491291 0.000000 0.000000 0.000000 -89.895104 3.468587 8.230796 8.418483 -2.672548 0.262366 3.251010 -5.288356 0.361584 0.060493 0.687003 -0.130393 0.000000 0.000000 0.000000 3.152832 -2.472926 -0.963658 -9.132903 6.356901 6.178443 -8.921401 -15.143854 11.557884 0.000000 0.000000 0.000000 2.234083 -3.585731 -2.158596 1.604714 7.642215 -4.828018 5.076861 -1.211019 -2.453923 35.199052 -35.073780 -30.625609 26.046706 -70.244958 20.141499 0.000000 0.000000 0.000000 5.580669 -2.542730 -1.220581 -2.303325 -2.803746 19.442820 8.649584 0.342733 1.543042 -26.412934 50.878718 54.877449 177.117091 77.007214 176.152600 0.000000 0.000000 0.000000 
5.098439 50.031784 -6.636667 0.000000 0.000000 0.000000 -88.077987 -5.257977 1.712042 9.163986 25.079828 5.990250 5.779957 -17.970627 -9.095162 23.844887 36.979088 -11.019353 5.733155 0.382413 8.199259 0.000000 0.000000 0.000000 -86.628450 -1.955628 4.217774 8.314550 -17.072691 -13.346803 -3.723908 19.911887 -11.108811 15.967280 -34.429068 25.444108 4.705150 -0.537765 -34.527064 0.000000 0.000000 0.000000 -89.649286 3.272393 8.027173 8.314857 -2.448784 0.254043 3.342038 -5.075529 0.437414 0.099168 0.695773 -0.125922 0.000000 0.000000 0.000000 3.209196 -2.243279 -0.958785 -7.940228 5.862903 5.885115 -8.064360 -16.368815 10.851746 0.000000 0.000000 0.000000 2.352483 -3.450330 -2.107062 1.548921 6.910059 -4.808697 5.582402 -0.939717 -2.488560 35.370859 -35.585815 -30.273789 25.090398 -70.243018 19.838035 0.000000 0.000000 0.000000 5.724723 -2.292438 -1.133522 -2.077616 -2.915639 19.747366 8.794038 0.653464 1.498084 -22.959515 51.061173 51.292467 177.033476 77.874115 176.378147 0.000000 0.000000 0.000000 
5.085337 50.039223 -6.593178 0.000000 0.000000 0.000000 -87.832169 -5.262463 1.642389 7.881862 24.532200 6.505697 6.041658 -17.935785 -8.820797 25.106563 36.642196 -11.394779 6.295703 0.500623 7.724761 0.000000 0.000000 0.000000 -86.349157 -2.038689 4.055418 7.409997 -16.588960 -13.440042 -3.926405 19.611358 -11.185486 17.255162 -34.424119 25.769334 4.217413 -0.466070 -34.541947 0.000000 0.000000 0.000000 -89.142438 2.998328 7.764349 8.194452 -2.265847 0.050775 3.434742 -4.844278 0.598467 0.118004 0.672203 -0.130368 0.000000 0.000000 0.000000 3.215885 -1.974453 -0.875969 -6.386152 5.202866 5.738070 -6.588701 -17.288880 9.854387 0.000000 0.000000 0.000000 2.501124 -3.310543 -1.950276 1.506596 6.352899 -4.851117 5.910332 -0.679892 -2.799459 35.940636 -36.047983 -29.513329 23.683929 -70.247539 19.160453 0.000000 0.000000 0.000000 5.904600 -2.031663 -0.972095 -1.725889 -3.307869 20.208559 9.196054 1.122913 1.499767 -16.930806 51.039879 46.658491 175.215717 77.739021 178.465644 0.000000 0.000000 0.000000 
5.070061 50.036644 -6.476526 0.000000 0.000000 0.000000 -87.483351 -5.352340 1.542305 6.551333 23.881854 6.855745 5.813770 -17.998891 -8.507017 25.778317 36.272983 -11.415974 6.681245 0.588028 7.321141 0.000000 0.000000 0.000000 -85.848299 -2.136242 3.914081 6.191885 -15.818153 -13.621367 -4.021691 19.332410 -11.424054 18.517877 -34.435208 25.984024 4.025515 -0.443307 -34.514708 0.000000 0.000000 0.000000 -88.497873 2.680203 7.465388 8.059079 -2.127731 -0.308483 3.526338 -4.636012 0.810805 0.112835 0.656891 -0.145702 0.000000 0.000000 0.000000 3.163711 -1.722365 -0.741738 -4.660197 4.393990 5.732028 -4.543460 -17.990042 8.716143 0.000000 0.000000 0.000000 2.665090 -3.196694 -1.723021 1.488258 6.036750 -4.925351 6.099457 -0.571876 -3.300074 36.842081 -36.412985 -28.535794 22.039526 -70.241249 18.227721 0.000000 0.000000 0.000000 6.078918 -1.805084 -0.759021 -1.294746 -3.968740 20.801932 9.761826 1.763245 1.577733 -9.472369 50.305525 42.000793 172.425025 76.385810 -178.389296 0.000000 0.000000 0.000000 
5.048090 50.020332 -6.323690 0.000000 0.000000 0.000000 -87.055768 -5.481550 1.378886 5.168794 23.233462 7.126951 5.274934 -18.222269 -8.211506 25.945911 35.814578 -11.199304 6.784131 0.628973 7.088089 0.000000 0.000000 0.000000 -85.254722 -2.267105 3.745414 4.674704 -14.873516 -13.869970 -3.768368 19.043032 -11.816672 19.802901 -34.472597 26.064506 4.166277 -0.490353 -34.425537 0.000000 0.000000 0.000000 -87.801761 2.376894 7.119949 7.934693 -2.032814 -0.728198 3.613605 -4.482636 1.039226 0.090205 0.651605 -0.173906 0.000000 0.000000 0.000000 3.044282 -1.528057 -0.582345 -2.986086 3.498509 5.859307 -2.131164 -18.499999 7.511477 0.000000 0.000000 0.000000 2.812018 -3.135163 -1.467308 1.487924 5.943859 -5.031397 6.155736 -0.548155 -3.945988 37.935065 -36.641667 -27.541790 20.227648 -70.162169 17.041672 0.000000 0.000000 0.000000 6.227640 -1.630327 -0.520929 -0.849959 -4.822055 21.456008 10.208480 2.625579 2.007019 -1.924453 48.700225 38.164860 169.840017 74.025768 -175.446345 0.000000 0.000000 0.000000 
5.015872 49.986435 -6.139343 0.000000 0.000000 0.000000 -86.569069 -5.530947 1.218519 3.741602 22.690131 7.356808 4.685842 -18.587610 -7.986025 25.790588 35.300402 -10.824713 6.849474 0.628580 6.981083 0.000000 0.000000 0.000000 -84.641917 -2.337125 3.608960 2.983649 -13.851432 -14.155831 -3.116099 18.823750 -12.255664 21.208661 -34.422159 26.197585 4.390422 -0.563579 -34.298386 0.000000 0.000000 0.000000 -87.132955 2.157446 6.764182 7.869623 -1.947161 -1.108371 3.695020 -4.410523 1.267346 0.064146 0.657400 -0.200235 0.000000 0.000000 0.000000 2.880193 -1.425511 -0.413608 -1.619541 2.575900 6.059098 0.390753 -18.838410 6.319325 0.000000 0.000000 0.000000 2.902906 -3.132114 -1.218111 1.497929 5.986645 -5.184718 6.137111 -0.484026 -4.571445 39.122849 -36.698931 -26.608616 18.408144 -70.012253 15.671820 0.000000 0.000000 0.000000 6.323562 -1.514621 -0.274417 -0.462184 -5.748684 22.221428 10.531381 3.675334 2.419105 4.590047 46.359704 35.687653 167.881091 71.225971 -173.180676 0.000000 0.000000 0.000000 
4.996091 49.953968 -5.943550 0.000000 0.000000 0.000000 -86.068498 -5.399665 1.150840 2.359970 22.296768 7.589258 4.174327 -19.033512 -7.882077 25.560468 34.796255 -10.476656 7.097310 0.616556 6.925601 0.000000 0.000000 0.000000 -84.060409 -2.303124 3.500956 1.405150 -12.880851 -14.382932 -2.207379 18.697527 -12.667152 22.690729 -34.268227 26.425082 4.484879 -0.613060 -34.188556 0.000000 0.000000 0.000000 -86.564622 2.039994 6.386944 7.897203 -1.855784 -1.367601 3.765105 -4.422293 1.484242 0.053146 0.683645 -0.203954 0.000000 0.000000 0.000000 2.692019 -1.422270 -0.249835 -0.685699 1.728047 6.280179 2.751896 -18.906735 5.100571 0.000000 0.000000 0.000000 2.923725 -3.201790 -1.004262 1.515782 6.089893 -5.416603 5.991265 -0.473244 -5.071084 40.315086 -36.525471 -25.722212 16.704809 -69.889897 14.180161 0.000000 0.000000 0.000000 6.339239 -1.468639 -0.024092 -0.168280 -6.611381 23.069305 10.628156 4.591900 2.739589 9.707657 43.682526 34.407467 166.385881 68.657123 -171.458293 0.000000 0.000000 0.000000 
